<svg width="0" height="0" class="hidden">
  <symbol xmlns="http://www.w3.org/2000/svg" viewBox="0 0 51 51" id="chevron">
    <circle cx="25.5" cy="25.5" r="25.5" fill="#393939"></circle>
    <rect x="24.4" y="27.9" width="1.6" height="15.24" rx=".8" transform="rotate(-39 11.114 37.674)"></rect>
    <rect x="33.3" y="27.9" width="1.6" height="15.24" rx=".8" transform="rotate(37.3 44.444 24.605)"></rect>
  </symbol>
  <symbol xmlns="http://www.w3.org/2000/svg" viewBox="0 0 501.656 501.656" id="clock">
    <path d="M342.512 328h-200a8 8 0 00-5.656 2.344l-96 96 11.312 11.312L145.824 344h187.888c-1.664 9.496-6.888 24-23.2 24h-88v16h88c31.64 0 40-31.4 40-48a8 8 0 00-8-8z"></path>
    <path d="M444.168 274.344a8 8 0 00-11.312 0l-72 72 11.312 11.312 65.712-65.712c10.828 14.37 8.629 34.68-5.024 46.4L339.2 432H174.512a8 8 0 00-5.656 2.344l-56 56 11.312 11.312L177.824 448h164.688a8 8 0 005.656-2.344l96-96c29.792-29.792 13.024-62.288 0-75.312zM262.512 0c-83.947 0-152 68.053-152 152s68.053 152 152 152c83.909-.093 151.907-68.091 152-152 0-83.947-68.053-152-152-152zm0 288c-75.111 0-136-60.889-136-136s60.89-136 136-136c75.076.084 135.916 60.924 136 136 0 75.111-60.889 136-136 136z"></path>
    <path d="M262.512 40c-61.856 0-112 50.144-112 112s50.145 112 112 112c61.828-.066 111.934-50.172 112-112 0-61.856-50.144-112-112-112zm8 207.666V224h-16v23.666c-46.637-3.848-83.817-41.028-87.666-87.666h23.666v-16h-23.666c3.849-46.637 41.029-83.817 87.666-87.666V80h16V56.343c46.612 3.893 83.764 41.045 87.657 87.657h-23.657v16h23.666c-3.848 46.637-41.028 83.817-87.666 87.666z"></path>
    <path d="M284.18 162.33a23.909 23.909 0 002.333-10.33c0-10.449-6.68-19.334-16-22.629V96h-16v33.371c-9.32 3.295-16 12.18-16 22.629-.001 13.255 10.745 24 23.999 24 3.711 0 7.225-.843 10.362-2.347l23.977 23.977 11.314-11.314-23.985-23.986zM262.512 160a8 8 0 110-16 8 8 0 010 16z"></path>
  </symbol>
  <symbol xmlns="http://www.w3.org/2000/svg" viewBox="0 0 24 24" id="computer">
    <path d="M21.5 24h-19A2.503 2.503 0 010 21.5v-19C0 1.122 1.121 0 2.5 0h19C22.879 0 24 1.122 24 2.5v19c0 1.378-1.121 2.5-2.5 2.5zM2.5 1C1.673 1 1 1.673 1 2.5v19c0 .827.673 1.5 1.5 1.5h19c.827 0 1.5-.673 1.5-1.5v-19c0-.827-.673-1.5-1.5-1.5z"></path>
    <path d="M16.5 8h-9a.5.5 0 010-1h9a.5.5 0 010 1zm0 4.5h-9a.5.5 0 010-1h9a.5.5 0 010 1zm0 4.5h-9a.5.5 0 010-1h9a.5.5 0 010 1z"></path>
  </symbol>
  <symbol xmlns="http://www.w3.org/2000/svg" viewBox="0 0 508.044 508.044" id="easy">
    <path d="M.108 352.536c0 66.794 54.144 120.938 120.937 120.938 66.794 0 120.938-54.144 120.938-120.938s-54.144-120.937-120.938-120.937c-13.727 0-26.867 2.393-39.168 6.61C109.093 82.118 230.814-18.543 117.979 64.303-7.138 156.17-.026 348.84.114 352.371c0 .055-.006.104-.006.165zm266.061 0c0 66.794 54.144 120.938 120.938 120.938s120.938-54.144 120.938-120.938S453.9 231.599 387.106 231.599c-13.728 0-26.867 2.393-39.168 6.61C375.154 82.118 496.875-18.543 384.04 64.303 258.923 156.17 266.034 348.84 266.175 352.371c0 .055-.006.104-.006.165z"></path>
  </symbol>
  <symbol xmlns="http://www.w3.org/2000/svg" viewBox="0 0 512 512" id="growth">
    <path d="M460.646 10H43.938C25.224 10 10 25.521 10 44.6v420.122c0 19.078 15.224 34.6 33.89 34.6 3.139.025 315.346 2.492 438.5 2.679h.03a19.282 19.282 0 0013.827-5.813A19.917 19.917 0 00502 481.77l-7.421-437.793C494.249 25.242 479.026 10 460.646 10zM43.938 22h416.708c11.879 0 21.719 9.954 21.935 22.184l6.511 384.244-96.777-99.462a33.563 33.563 0 00-54.35-3.721l-45.03 53.805a21.4 21.4 0 01-18.452 7.764 21.636 21.636 0 01-17.013-10.959l-81.253-140.576a33.583 33.583 0 00-56.1-3.578L22 345.014V44.6C22 32.138 31.841 22 43.938 22zm443.767 465.764a7.377 7.377 0 01-5.282 2.236h-.011c-123.12-.187-435.288-2.654-438.474-2.679-12.1 0-21.938-10.138-21.938-22.6V363.346L129.321 239.4l.271-.337a21.585 21.585 0 0136.236 2.221L247.08 381.86a33.576 33.576 0 0055.057 4.892l45.03-53.805a21.57 21.57 0 0135.25 2.83l.356.591L489.388 445.94l.612 36.028a8.007 8.007 0 01-2.295 5.796z"></path>
    <path d="M284.988 218.5c29.7 0 53.864-24.671 53.864-54.995s-24.164-54.995-53.864-54.995-53.863 24.671-53.863 54.995 24.163 54.995 53.863 54.995zm0-97.99c23.084 0 41.864 19.287 41.864 42.995s-18.78 43-41.864 43-41.863-19.288-41.863-42.995 18.775-42.996 41.863-42.996z"></path>
  </symbol>
  <symbol xmlns="http://www.w3.org/2000/svg" viewBox="0 0 512 512" id="line">
    <path d="M41.073 152.466a10.2 10.2 0 00-18.895-.657C7.468 184.791.009 219.844.009 255.99c0 48.964 13.875 96.559 40.124 137.639 25.548 39.983 61.564 72.053 104.158 92.743a10.194 10.194 0 0011.29-1.604 10.2 10.2 0 002.747-11.068L41.073 152.466zM20.408 255.99c0-24.264 3.652-47.994 10.883-70.837l98.5 269.854C61.706 412.039 20.408 337.973 20.408 255.99zm324.968 224.775l-75.473-206.771a10.2 10.2 0 00-9.58-6.702h-.096a10.203 10.203 0 00-9.55 6.88l-73.753 214.293a10.195 10.195 0 006.766 13.104A256.135 256.135 0 00256.001 512c29.053 0 57.656-4.883 85.015-14.514a10.204 10.204 0 006.226-6.212 10.194 10.194 0 00-.922-8.747c-.423-.691-.726-1.255-.944-1.762zm-89.375 10.837a235.616 235.616 0 01-56.238-6.818l60.841-176.773 63.36 173.59c-22.027 6.64-44.838 10.001-67.963 10.001z"></path>
    <path d="M373.292 403.888c4.314 0 8.167-2.717 9.612-6.788l27.138-76.438c13.018-33.396 19.346-60.555 19.346-83.022 0-33.87-10.023-51.413-18.869-66.891a10.448 10.448 0 00-.167-.283c-.982-1.597-1.959-3.175-2.926-4.737-10.569-17.065-19.698-31.803-19.698-47.571 0-16.074 11.879-33.424 31.069-33.424.317 0 .804.041 1.321.085.404.034.805.067 1.209.093 4.329.281 8.341-2.2 10.038-6.179a10.2 10.2 0 00-2.492-11.52C381.573 23.87 320.18 0 256.001 0 169.666 0 89.708 43.127 42.115 115.365a10.199 10.199 0 008.179 15.805c6.281.208 11.719.314 16.16.314 23.686 0 58.376-2.55 65.182-3.068 1.089 1.962 1.193 6.64.137 8.39-2.685.3-14.319 1.553-26.893 2.209a10.196 10.196 0 00-9.137 13.433l80.48 239.565a10.198 10.198 0 009.668 6.951h.011a10.2 10.2 0 009.665-6.973l53.793-161.323a10.2 10.2 0 00-.122-6.8l-29.269-78.243a10.2 10.2 0 00-8.959-6.608c-11.584-.675-22.772-1.988-24.791-2.231-.919-1.946-.707-6.437.377-8.368 7.002.524 42.099 3.064 64.336 3.064 23.69 0 58.382-2.55 65.184-3.068 1.09 1.961 1.196 6.641.139 8.389-2.677.3-14.328 1.554-26.896 2.211a10.2 10.2 0 00-9.123 13.478l83.404 244.49a10.2 10.2 0 009.59 6.906h.062zM303.83 158.48c8.698-.708 14.988-1.437 15.375-1.483 11.726-1.386 19.321-12.743 18.061-27.005-1.206-13.633-10.034-22.696-21.423-22.014l-.198.013c-.395.031-39.714 3.092-64.716 3.092-23.477 0-63.551-3.063-63.953-3.093a5.5 5.5 0 00-.184-.012c-11.588-.695-20.652 9.083-21.489 23.228-.836 14.126 6.861 24.914 18.351 25.817 1.624.197 9.756 1.164 19.509 1.907l25.701 68.706-43.012 128.993-66.564-198.143c8.736-.709 15.053-1.442 15.444-1.488 11.724-1.386 19.316-12.747 18.055-27.012-1.207-13.629-10.032-22.697-21.419-22.007l-.198.013c-.374.031-35.884 2.795-60.879 3.071 44.547-57.103 112.646-90.666 185.71-90.666 51.924 0 101.868 16.978 142.757 48.187-18.452 8.187-31.428 27.326-31.428 49.574 0 21.573 11.053 39.419 22.755 58.312.927 1.497 1.864 3.01 2.806 4.541 8.29 14.509 16.097 28.269 16.097 56.629 0 19.642-6.058 45.128-18.008 75.755-.038.098-.074.196-.109.295l-17.388 48.972L303.83 158.48z"></path>
    <path d="M480.631 133.175a10.205 10.205 0 00-12.133-4.786 10.202 10.202 0 00-6.917 11.059c1.038 7.665 1.566 15.707 1.566 23.901 0 26.824-5.711 53.594-17.971 84.247-.06.15-.116.302-.169.454l-75.07 217.056a10.201 10.201 0 009.643 13.532 10.17 10.17 0 005.132-1.388c38.017-22.163 69.889-53.921 92.171-91.842 22.969-39.088 35.109-83.839 35.109-129.417-.001-42.904-10.845-85.374-31.361-122.816zm-81.473 309.854l65.051-188.086c9.331-23.375 15.137-44.781 17.736-65.726a236.37 236.37 0 019.65 66.774c0 73.498-34.797 142.771-92.437 187.038zm-136.872-73.295c-5.342-1.782-11.119 1.108-12.901 6.451l-1.36 4.079c-1.781 5.343 1.108 11.119 6.451 12.901 1.07.357 2.157.526 3.226.526 4.27 0 8.25-2.703 9.675-6.977l1.36-4.079c1.781-5.343-1.108-11.119-6.451-12.901zm-12.579 37.738c-5.344-1.786-11.119 1.108-12.901 6.45l-16.999 50.996c-1.781 5.343 1.108 11.119 6.451 12.9a10.15 10.15 0 003.226.527c4.27 0 8.25-2.703 9.675-6.977l16.998-50.996c1.782-5.343-1.107-11.119-6.45-12.9z"></path>
  </symbol>
</svg>